<svg width="344" height="134" viewBox="0 0 344 134" fill="none" xmlns="http://www.w3.org/2000/svg">
<g filter="url(#filter0_d)">
<rect x="4" width="336" height="126" rx="24" fill="url(#paint0_linear)"/>
<path d="M86.5023 63.004H91.8303V73.228C90.4623 74.26 88.8783 75.052 87.0783 75.604C85.2783 76.156 83.4663 76.432 81.6423 76.432C79.0263 76.432 76.6743 75.88 74.5863 74.776C72.4983 73.648 70.8543 72.1 69.6543 70.132C68.4783 68.14 67.8903 65.896 67.8903 63.4C67.8903 60.904 68.4783 58.672 69.6543 56.704C70.8543 54.712 72.5103 53.164 74.6223 52.06C76.7343 50.932 79.1103 50.368 81.7503 50.368C83.9583 50.368 85.9623 50.74 87.7623 51.484C89.5623 52.228 91.0743 53.308 92.2983 54.724L88.5543 58.18C86.7543 56.284 84.5823 55.336 82.0383 55.336C80.4303 55.336 79.0023 55.672 77.7543 56.344C76.5063 57.016 75.5343 57.964 74.8383 59.188C74.1423 60.412 73.7943 61.816 73.7943 63.4C73.7943 64.96 74.1423 66.352 74.8383 67.576C75.5343 68.8 76.4943 69.76 77.7183 70.456C78.9663 71.128 80.3823 71.464 81.9663 71.464C83.6463 71.464 85.1583 71.104 86.5023 70.384V63.004ZM115.824 66.388C115.824 66.46 115.788 66.964 115.716 67.9H101.064C101.328 69.1 101.952 70.048 102.936 70.744C103.92 71.44 105.144 71.788 106.608 71.788C107.616 71.788 108.504 71.644 109.272 71.356C110.064 71.044 110.796 70.564 111.468 69.916L114.456 73.156C112.632 75.244 109.968 76.288 106.464 76.288C104.28 76.288 102.348 75.868 100.668 75.028C98.9878 74.164 97.6918 72.976 96.7798 71.464C95.8678 69.952 95.4118 68.236 95.4118 66.316C95.4118 64.42 95.8558 62.716 96.7438 61.204C97.6558 59.668 98.8918 58.48 100.452 57.64C102.036 56.776 103.8 56.344 105.744 56.344C107.64 56.344 109.356 56.752 110.892 57.568C112.428 58.384 113.628 59.56 114.492 61.096C115.38 62.608 115.824 64.372 115.824 66.388ZM105.78 60.592C104.508 60.592 103.44 60.952 102.576 61.672C101.712 62.392 101.184 63.376 100.992 64.624H110.532C110.34 63.4 109.812 62.428 108.948 61.708C108.084 60.964 107.028 60.592 105.78 60.592ZM132.055 75.064C131.503 75.472 130.819 75.784 130.003 76C129.211 76.192 128.371 76.288 127.483 76.288C125.179 76.288 123.391 75.7 122.119 74.524C120.871 73.348 120.247 71.62 120.247 69.34V61.384H117.259V57.064H120.247V52.348H125.863V57.064H130.687V61.384H125.863V69.268C125.863 70.084 126.067 70.72 126.475 71.176C126.907 71.608 127.507 71.824 128.275 71.824C129.163 71.824 129.919 71.584 130.543 71.104L132.055 75.064ZM151.919 76.288C150.311 76.288 148.739 76.096 147.203 75.712C145.667 75.304 144.443 74.8 143.531 74.2L145.403 70.168C146.267 70.72 147.311 71.176 148.535 71.536C149.759 71.872 150.959 72.04 152.135 72.04C154.511 72.04 155.699 71.452 155.699 70.276C155.699 69.724 155.375 69.328 154.727 69.088C154.079 68.848 153.083 68.644 151.739 68.476C150.155 68.236 148.847 67.96 147.815 67.648C146.783 67.336 145.883 66.784 145.115 65.992C144.371 65.2 143.999 64.072 143.999 62.608C143.999 61.384 144.347 60.304 145.043 59.368C145.763 58.408 146.795 57.664 148.139 57.136C149.507 56.608 151.115 56.344 152.963 56.344C154.331 56.344 155.687 56.5 157.031 56.812C158.399 57.1 159.527 57.508 160.415 58.036L158.543 62.032C156.839 61.072 154.979 60.592 152.963 60.592C151.763 60.592 150.863 60.76 150.263 61.096C149.663 61.432 149.363 61.864 149.363 62.392C149.363 62.992 149.687 63.412 150.335 63.652C150.983 63.892 152.015 64.12 153.431 64.336C155.015 64.6 156.311 64.888 157.319 65.2C158.327 65.488 159.203 66.028 159.947 66.82C160.691 67.612 161.063 68.716 161.063 70.132C161.063 71.332 160.703 72.4 159.983 73.336C159.263 74.272 158.207 75.004 156.815 75.532C155.447 76.036 153.815 76.288 151.919 76.288ZM177.02 75.064C176.468 75.472 175.784 75.784 174.968 76C174.176 76.192 173.336 76.288 172.448 76.288C170.144 76.288 168.356 75.7 167.084 74.524C165.836 73.348 165.212 71.62 165.212 69.34V61.384H162.224V57.064H165.212V52.348H170.828V57.064H175.652V61.384H170.828V69.268C170.828 70.084 171.032 70.72 171.44 71.176C171.872 71.608 172.472 71.824 173.24 71.824C174.128 71.824 174.884 71.584 175.508 71.104L177.02 75.064ZM187.984 56.344C190.984 56.344 193.288 57.064 194.896 58.504C196.504 59.92 197.308 62.068 197.308 64.948V76H192.052V73.588C190.996 75.388 189.028 76.288 186.148 76.288C184.66 76.288 183.364 76.036 182.26 75.532C181.18 75.028 180.352 74.332 179.776 73.444C179.2 72.556 178.912 71.548 178.912 70.42C178.912 68.62 179.584 67.204 180.928 66.172C182.296 65.14 184.396 64.624 187.228 64.624H191.692C191.692 63.4 191.32 62.464 190.576 61.816C189.832 61.144 188.716 60.808 187.228 60.808C186.196 60.808 185.176 60.976 184.168 61.312C183.184 61.624 182.344 62.056 181.648 62.608L179.632 58.684C180.688 57.94 181.948 57.364 183.412 56.956C184.9 56.548 186.424 56.344 187.984 56.344ZM187.552 72.508C188.512 72.508 189.364 72.292 190.108 71.86C190.852 71.404 191.38 70.744 191.692 69.88V67.9H187.84C185.536 67.9 184.384 68.656 184.384 70.168C184.384 70.888 184.66 71.464 185.212 71.896C185.788 72.304 186.568 72.508 187.552 72.508ZM207.755 59.188C208.427 58.252 209.327 57.544 210.455 57.064C211.607 56.584 212.927 56.344 214.415 56.344V61.528C213.791 61.48 213.371 61.456 213.155 61.456C211.547 61.456 210.287 61.912 209.375 62.824C208.463 63.712 208.007 65.056 208.007 66.856V76H202.391V56.632H207.755V59.188ZM230.914 75.064C230.362 75.472 229.678 75.784 228.862 76C228.07 76.192 227.23 76.288 226.342 76.288C224.038 76.288 222.25 75.7 220.978 74.524C219.73 73.348 219.106 71.62 219.106 69.34V61.384H216.118V57.064H219.106V52.348H224.722V57.064H229.546V61.384H224.722V69.268C224.722 70.084 224.926 70.72 225.334 71.176C225.766 71.608 226.366 71.824 227.134 71.824C228.022 71.824 228.778 71.584 229.402 71.104L230.914 75.064ZM252.441 66.388C252.441 66.46 252.405 66.964 252.333 67.9H237.681C237.945 69.1 238.569 70.048 239.553 70.744C240.537 71.44 241.761 71.788 243.225 71.788C244.233 71.788 245.121 71.644 245.889 71.356C246.681 71.044 247.413 70.564 248.085 69.916L251.073 73.156C249.249 75.244 246.585 76.288 243.081 76.288C240.897 76.288 238.965 75.868 237.285 75.028C235.605 74.164 234.309 72.976 233.397 71.464C232.485 69.952 232.029 68.236 232.029 66.316C232.029 64.42 232.473 62.716 233.361 61.204C234.273 59.668 235.509 58.48 237.069 57.64C238.653 56.776 240.417 56.344 242.361 56.344C244.257 56.344 245.973 56.752 247.509 57.568C249.045 58.384 250.245 59.56 251.109 61.096C251.997 62.608 252.441 64.372 252.441 66.388ZM242.397 60.592C241.125 60.592 240.057 60.952 239.193 61.672C238.329 62.392 237.801 63.376 237.609 64.624H247.149C246.957 63.4 246.429 62.428 245.565 61.708C244.701 60.964 243.645 60.592 242.397 60.592ZM275.908 49.288V76H270.544V73.768C269.152 75.448 267.136 76.288 264.496 76.288C262.672 76.288 261.016 75.88 259.528 75.064C258.064 74.248 256.912 73.084 256.072 71.572C255.232 70.06 254.812 68.308 254.812 66.316C254.812 64.324 255.232 62.572 256.072 61.06C256.912 59.548 258.064 58.384 259.528 57.568C261.016 56.752 262.672 56.344 264.496 56.344C266.968 56.344 268.9 57.124 270.292 58.684V49.288H275.908ZM265.468 71.68C266.884 71.68 268.06 71.2 268.996 70.24C269.932 69.256 270.4 67.948 270.4 66.316C270.4 64.684 269.932 63.388 268.996 62.428C268.06 61.444 266.884 60.952 265.468 60.952C264.028 60.952 262.84 61.444 261.904 62.428C260.968 63.388 260.5 64.684 260.5 66.316C260.5 67.948 260.968 69.256 261.904 70.24C262.84 71.2 264.028 71.68 265.468 71.68Z" fill="#FFCC66"/>
</g>
<defs>
<filter id="filter0_d" x="0" y="0" width="344" height="134" filterUnits="userSpaceOnUse" color-interpolation-filters="sRGB">
<feFlood flood-opacity="0" result="BackgroundImageFix"/>
<feColorMatrix in="SourceAlpha" type="matrix" values="0 0 0 0 0 0 0 0 0 0 0 0 0 0 0 0 0 0 127 0"/>
<feOffset dy="4"/>
<feGaussianBlur stdDeviation="2"/>
<feColorMatrix type="matrix" values="0 0 0 0 0 0 0 0 0 0 0 0 0 0 0 0 0 0 0.25 0"/>
<feBlend mode="normal" in2="BackgroundImageFix" result="effect1_dropShadow"/>
<feBlend mode="normal" in="SourceGraphic" in2="effect1_dropShadow" result="shape"/>
</filter>
<linearGradient id="paint0_linear" x1="172" y1="-30" x2="172" y2="126" gradientUnits="userSpaceOnUse">
<stop stop-color="#444444"/>
<stop offset="1" stop-color="#282828"/>
</linearGradient>
</defs>
</svg>
